<?xml version="1.0" encoding="iso-8859-1"?>
<!-- Generator: Adobe Illustrator 19.0.0, SVG Export Plug-In . SVG Version: 6.00 Build 0)  -->
<svg version="1.1" id="Capa_1" xmlns="http://www.w3.org/2000/svg" xmlns:xlink="http://www.w3.org/1999/xlink" x="0px" y="0px"
	 viewBox="0 0 512 512" style="enable-background:new 0 0 512 512;" xml:space="preserve">
<g>
	<g>
		<g>
			<rect x="81.455" y="221.091" width="46.545" height="69.818"/>
			<path d="M465.455,46.545H46.545C20.829,46.545,0,67.375,0,93.091v325.818c0,25.716,20.829,46.545,46.545,46.545h418.909
				c25.716,0,46.545-20.829,46.545-46.545V93.091C512,67.375,491.171,46.545,465.455,46.545z M162.909,290.909
				c0,19.782-15.127,34.909-34.909,34.909H46.545V186.182H128c19.782,0,34.909,15.127,34.909,34.909V290.909z M270.429,325.818
				H235.52l-40.727-139.636h34.909l23.273,79.825l23.273-79.825h34.909L270.429,325.818z M465.455,244.364
				c0,13.964-9.309,26.764-20.945,32.582l20.945,48.873h-34.909l-19.782-46.545H384v46.545h-34.909V186.182h81.455
				c19.782,0,34.909,15.127,34.909,34.909V244.364z"/>
			<rect x="384" y="221.091" width="46.545" height="23.273"/>
		</g>
	</g>
</g>
<g>
</g>
<g>
</g>
<g>
</g>
<g>
</g>
<g>
</g>
<g>
</g>
<g>
</g>
<g>
</g>
<g>
</g>
<g>
</g>
<g>
</g>
<g>
</g>
<g>
</g>
<g>
</g>
<g>
</g>
</svg>
